<mxfile host="app.diagrams.net" modified="2023-10-12T07:51:38.527Z" agent="Mozilla/5.0 (Windows NT 10.0; Win64; x64) AppleWebKit/537.36 (KHTML, like Gecko) Chrome/117.0.0.0 Safari/537.36" etag="nk0bmX-3nJhd-qUCwX1g" version="22.0.4" type="github">
  <diagram name="第 1 页" id="-3Tou5fD3TzC763HK5R6">
    <mxGraphModel dx="1562" dy="913" grid="1" gridSize="10" guides="1" tooltips="1" connect="1" arrows="1" fold="1" page="1" pageScale="1" pageWidth="827" pageHeight="1169" math="0" shadow="0">
      <root>
        <mxCell id="0" />
        <mxCell id="1" parent="0" />
        <mxCell id="34Q2GrzJtU4outot9Cv6-1" value="" style="edgeStyle=orthogonalEdgeStyle;rounded=0;orthogonalLoop=1;jettySize=auto;html=1;" parent="1" source="AAmkFrmr3MbG6_MhNlWc-2" target="AAmkFrmr3MbG6_MhNlWc-14" edge="1">
          <mxGeometry relative="1" as="geometry" />
        </mxCell>
        <mxCell id="AAmkFrmr3MbG6_MhNlWc-2" value="开始" style="rounded=1;whiteSpace=wrap;html=1;fontSize=12;glass=0;strokeWidth=1;shadow=0;" parent="1" vertex="1">
          <mxGeometry x="160" y="80" width="120" height="40" as="geometry" />
        </mxCell>
        <mxCell id="AAmkFrmr3MbG6_MhNlWc-9" value="" style="edgeStyle=orthogonalEdgeStyle;rounded=0;orthogonalLoop=1;jettySize=auto;html=1;exitX=0.5;exitY=1;exitDx=0;exitDy=0;" parent="1" edge="1">
          <mxGeometry relative="1" as="geometry">
            <mxPoint x="220" y="340" as="sourcePoint" />
            <mxPoint x="220" y="390" as="targetPoint" />
          </mxGeometry>
        </mxCell>
        <mxCell id="AAmkFrmr3MbG6_MhNlWc-10" value="结束" style="rounded=1;whiteSpace=wrap;html=1;fontSize=12;glass=0;strokeWidth=1;shadow=0;" parent="1" vertex="1">
          <mxGeometry x="160" y="790" width="120" height="40" as="geometry" />
        </mxCell>
        <mxCell id="TkWlUsOprMcdzNKrpfM2-2" value="" style="edgeStyle=orthogonalEdgeStyle;rounded=0;orthogonalLoop=1;jettySize=auto;html=1;" parent="1" source="AAmkFrmr3MbG6_MhNlWc-11" target="TkWlUsOprMcdzNKrpfM2-1" edge="1">
          <mxGeometry relative="1" as="geometry" />
        </mxCell>
        <mxCell id="AAmkFrmr3MbG6_MhNlWc-11" value="选择任课老师、课时、学分、学期" style="rounded=1;whiteSpace=wrap;html=1;fontSize=12;glass=0;strokeWidth=1;shadow=0;" parent="1" vertex="1">
          <mxGeometry x="160" y="490" width="120" height="70" as="geometry" />
        </mxCell>
        <mxCell id="AAmkFrmr3MbG6_MhNlWc-13" value="" style="edgeStyle=orthogonalEdgeStyle;rounded=0;orthogonalLoop=1;jettySize=auto;html=1;" parent="1" source="AAmkFrmr3MbG6_MhNlWc-14" edge="1">
          <mxGeometry relative="1" as="geometry">
            <mxPoint x="220" y="260" as="targetPoint" />
          </mxGeometry>
        </mxCell>
        <mxCell id="AAmkFrmr3MbG6_MhNlWc-14" value="展示已有课程" style="rounded=1;whiteSpace=wrap;html=1;fontSize=12;glass=0;strokeWidth=1;shadow=0;" parent="1" vertex="1">
          <mxGeometry x="160" y="170" width="120" height="50" as="geometry" />
        </mxCell>
        <mxCell id="AAmkFrmr3MbG6_MhNlWc-16" value="" style="edgeStyle=orthogonalEdgeStyle;rounded=0;orthogonalLoop=1;jettySize=auto;html=1;" parent="1" source="AAmkFrmr3MbG6_MhNlWc-17" target="AAmkFrmr3MbG6_MhNlWc-11" edge="1">
          <mxGeometry relative="1" as="geometry" />
        </mxCell>
        <mxCell id="AAmkFrmr3MbG6_MhNlWc-17" value="输入课程编号、名称" style="rounded=1;whiteSpace=wrap;html=1;fontSize=12;glass=0;strokeWidth=1;shadow=0;" parent="1" vertex="1">
          <mxGeometry x="160" y="390" width="120" height="50" as="geometry" />
        </mxCell>
        <mxCell id="TkWlUsOprMcdzNKrpfM2-5" value="" style="edgeStyle=orthogonalEdgeStyle;rounded=0;orthogonalLoop=1;jettySize=auto;html=1;" parent="1" source="TkWlUsOprMcdzNKrpfM2-1" target="TkWlUsOprMcdzNKrpfM2-4" edge="1">
          <mxGeometry relative="1" as="geometry" />
        </mxCell>
        <mxCell id="TkWlUsOprMcdzNKrpfM2-1" value="保存" style="rounded=1;whiteSpace=wrap;html=1;fontSize=12;glass=0;strokeWidth=1;shadow=0;" parent="1" vertex="1">
          <mxGeometry x="160" y="610" width="120" height="40" as="geometry" />
        </mxCell>
        <mxCell id="TkWlUsOprMcdzNKrpfM2-6" value="" style="edgeStyle=orthogonalEdgeStyle;rounded=0;orthogonalLoop=1;jettySize=auto;html=1;" parent="1" source="TkWlUsOprMcdzNKrpfM2-4" target="AAmkFrmr3MbG6_MhNlWc-10" edge="1">
          <mxGeometry relative="1" as="geometry" />
        </mxCell>
        <mxCell id="TkWlUsOprMcdzNKrpfM2-9" value="" style="edgeStyle=orthogonalEdgeStyle;rounded=0;orthogonalLoop=1;jettySize=auto;html=1;entryX=1;entryY=0.5;entryDx=0;entryDy=0;" parent="1" source="TkWlUsOprMcdzNKrpfM2-4" target="AAmkFrmr3MbG6_MhNlWc-17" edge="1">
          <mxGeometry relative="1" as="geometry">
            <mxPoint x="340" y="720" as="targetPoint" />
            <Array as="points">
              <mxPoint x="360" y="720" />
              <mxPoint x="360" y="415" />
            </Array>
          </mxGeometry>
        </mxCell>
        <mxCell id="TkWlUsOprMcdzNKrpfM2-4" value="编号、名称是否重复" style="rhombus;whiteSpace=wrap;html=1;shadow=0;fontFamily=Helvetica;fontSize=12;align=center;strokeWidth=1;spacing=6;spacingTop=-4;" parent="1" vertex="1">
          <mxGeometry x="170" y="680" width="100" height="80" as="geometry" />
        </mxCell>
        <mxCell id="TkWlUsOprMcdzNKrpfM2-7" value="否" style="text;html=1;align=center;verticalAlign=middle;resizable=0;points=[];autosize=1;strokeColor=none;fillColor=none;" parent="1" vertex="1">
          <mxGeometry x="220" y="758" width="40" height="30" as="geometry" />
        </mxCell>
        <mxCell id="TkWlUsOprMcdzNKrpfM2-11" value="是" style="text;html=1;align=center;verticalAlign=middle;resizable=0;points=[];autosize=1;strokeColor=none;fillColor=none;" parent="1" vertex="1">
          <mxGeometry x="350" y="548" width="40" height="30" as="geometry" />
        </mxCell>
        <mxCell id="34Q2GrzJtU4outot9Cv6-5" value="" style="edgeStyle=orthogonalEdgeStyle;rounded=0;orthogonalLoop=1;jettySize=auto;html=1;" parent="1" source="34Q2GrzJtU4outot9Cv6-2" edge="1">
          <mxGeometry relative="1" as="geometry">
            <mxPoint x="160" y="810" as="targetPoint" />
            <Array as="points">
              <mxPoint x="80" y="300" />
              <mxPoint x="80" y="810" />
            </Array>
          </mxGeometry>
        </mxCell>
        <mxCell id="34Q2GrzJtU4outot9Cv6-2" value="是否修改？" style="rhombus;whiteSpace=wrap;html=1;shadow=0;fontFamily=Helvetica;fontSize=12;align=center;strokeWidth=1;spacing=6;spacingTop=-4;" parent="1" vertex="1">
          <mxGeometry x="170" y="260" width="100" height="80" as="geometry" />
        </mxCell>
        <mxCell id="34Q2GrzJtU4outot9Cv6-3" value="是" style="text;html=1;align=center;verticalAlign=middle;resizable=0;points=[];autosize=1;strokeColor=none;fillColor=none;" parent="1" vertex="1">
          <mxGeometry x="210" y="348" width="40" height="30" as="geometry" />
        </mxCell>
        <mxCell id="34Q2GrzJtU4outot9Cv6-6" value="否" style="text;html=1;align=center;verticalAlign=middle;resizable=0;points=[];autosize=1;strokeColor=none;fillColor=none;" parent="1" vertex="1">
          <mxGeometry x="110" y="268" width="40" height="30" as="geometry" />
        </mxCell>
      </root>
    </mxGraphModel>
  </diagram>
</mxfile>
